<?xml version="1.0" encoding="UTF-8"?>
<svg width="128pt" height="128pt" version="1.1" viewBox="0 0 128 128" xmlns="http://www.w3.org/2000/svg">
 <path d="m124.98 56.449-42.141-42.141c-1.9141-2.0156-4.5625-3.1719-7.3438-3.207-2.7812-0.035156-5.457 1.0508-7.4258 3.0195-1.9648 1.9648-3.0547 4.6406-3.0234 7.4219 0.035156 2.7812 1.1875 5.4297 3.2031 7.3477l24.91 24.871h-82.844c-5.6992 0-10.316 4.6172-10.316 10.316 0 5.6953 4.6172 10.316 10.316 10.316h82.613l-24.68 24.715c-3.8555 4.0586-3.7734 10.449 0.1875 14.406 3.957 3.957 10.352 4.0352 14.402 0.17578l42.141-42.141c1.9414-1.9297 3.0273-4.5586 3.0195-7.293 0.007812-0.085937 0.007812-0.17187 0-0.25781 0.007812-0.085938 0.007812-0.17188 0-0.25781 0-2.7344-1.0859-5.3594-3.0195-7.293z" fill="#136f3a"/>
</svg>
